{"title":"Indiana Jones 3 Last Crusade (1989)(DIVX)(NL SUBS) 2Lions-Team","uid":5876301,"size":1468179787,"categoryP":"video","categoryS":"movies","magnet":"?xt=urn:btih:869440c6dc69bf43f6ee11058de79471599f151d&amp;dn=Indiana+Jones+3+Last+Crusade+%281989%29%28DIVX%29%28NL+SUBS%29+2Lions-Team&amp;tr=udp%3A%2F%2Ftracker.openbittorrent.com%3A80&amp;tr=udp%3A%2F%2Fopen.demonii.com%3A1337&amp;tr=udp%3A%2F%2Ftracker.coppersurfer.tk%3A6969&amp;tr=udp%3A%2F%2Fexodus.desync.com%3A6969","seeders":2,"leechers":0,"uploader":"Pioen","files":-1,"time":1286654104,"description":"Indiana Jones 3 Last Crusade (1989)       \n\n \nVerenigde Staten\nActie / Avontuur\n127 minuten\n\ngeregisseerd door Steven Spielberg\nmet Harrison Ford, Sean Connery en Denholm Elliott\n\nAl sedert 1912 zit Indiana Jones een bende achterna die een kostbaar kruis hebben gestolen. Nu het hem uiteindelijk gelukt is het juweel te bemachtigen en aan historicus Brody te overhandigen, kan hij opnieuw zijn baan als leraar oppikken. Op een dag wordt hij na schooltijd opgepikt en meegenomen naar de rijke Donovan. Deze bezit een steen, waarop een soort beschrijving staat die naar de Heilige Graal moet leiden. In het bezit van de notities van zijn vader, reist Jones naar VenetiÃƒÂ«. Met de hulp van dokter Elsa Schneider vindt hij de ontbrekende schakel voor de locatie van de Graal. Eindelijk kan hij samen met zijn vader naar Afrika vertrekken, maar hij is natuurlijk niet de enige die de waardevolle Graal op de kop wil tikken...\n  \nEnglish\n\nStoryline\nThree years after he recovered The Ark of the Covenant. Jones recovered an artifact that he found as a kid, the Cross of Francisco De Coronado from treasure hunters. Now, Jones discovers the history of another biblical artifact called &quot;The Holy Grail&quot;. He was also informed that his father, Henry Jones is missing. Jones has to find his father who is looking for the Grail. However, Jones will become involved in the search of the Holy Grail along with his father, as well as fighting the Nazis to reach it.\n\n\n\nSpotinformatie \nCategorie ...: Beeld \nFormaat .....: DivX \nBron ........: Retail\nAudio .......: English\nSubs ........: Nederlands (SRT)(instelbaar)\nThanks...... : cjdijk \n\n\nFormat                           : AVI\nFormat/Info                      : Audio Video Interleave\nFile size                        : 700 MiB\nDuration                         : 59mn 33s\nOverall bit rate                 : 1 642 Kbps\nWriting application              : VirtualDubMod 1.5.4.1 (build 2178/release)\nWriting library                  : VirtualDubMod build 2178/release\n\nVideo\nID                               : 0\nFormat                           : MPEG-4 Visual\nFormat profile                   : Simple@L3\nFormat settings, BVOP            : Yes\nFormat settings, QPel            : No\nFormat settings, GMC             : No warppoints\nFormat settings, Matrix          : Custom\nCodec ID                         : XVID\nCodec ID/Hint                    : XviD\nDuration                         : 59mn 33s\nBit rate                         : 1 187 Kbps\nWidth                            : 720 pixels\nHeight                           : 304 pixels\nDisplay aspect ratio             : 2.35\nFrame rate                       : 25.000 fps\nResolution                       : 24 bits\nColorimetry                      : 4:2:0\nScan type                        : Progressive\nBits/(Pixel*Frame)               : 0.217\nStream size                      : 506 MiB (72%)\nWriting library                  : XviD 0.0.09 (UTC 2003-03-25)\n\nAudio\nID                               : 1\nFormat                           : AC-3\nFormat/Info                      : Audio Coding 3\nCodec ID                         : 2000\nDuration                         : 59mn 33s\nBit rate mode                    : Constant\nBit rate                         : 448 Kbps\nChannel(s)                       : 6 channels\nChannel positions                : Front: L C R, Surround: L R, LFE\nSampling rate                    : 48.0 KHz\nVideo delay                      : 8ms\nStream size                      : 191 MiB (27%)\nAlignment                        : Split accross interleaves\nInterleave, duration             : 96 ms (2.40 video frames)\nInterleave, preload duration     : 96 ms\nLanguage                         : English / English\n\n \nGenre : Actie\nAvontuur\n\n\nWeblink : &lt;a href=&quot; http://www.moviemeter.nl/film/319&quot; rel=&quot;nofollow&quot; target=&quot;_NEW&quot;&gt; http://www.moviemeter.nl/film/319&lt;/a&gt; \nWeblink : &lt;a href=&quot; http://www.imdb.com/title/tt0097576/&quot; rel=&quot;nofollow&quot; target=&quot;_NEW&quot;&gt; http://www.imdb.com/title/tt0097576/&lt;/a&gt;\n\n*****************************************\n\nBrought to you by \n2Lions Team\n\nmeer zien??\nKom dan eens kijken op ons Forum \n                   &lt;a href=&quot;\nhttp://www.2lions-site.nl&quot; rel=&quot;nofollow&quot; target=&quot;_NEW&quot;&gt;\nhttp://www.2lions-site.nl&lt;/a&gt;  \n\n2Lions the site to be for all your Dutch MOVIES and more\n\n******************************************\n\n\nDON T HIT AND RUN Niet gelijk afhaken als de FILM binnen is blijf seeden. \n\nDon`t quit after you finished the download, but keep seeding\n\n\nThere are fake torrents from uploaders who use our team name.\nThose are not ours, or members from our team.\nWe 2Lions-Team are not responsible for the fake posts on our name\n\nWij 2Lions-Team zijn niet verantwoordelijk voor die zieke FAKE posten die op onze naam worden gedaan\n\nPlease check our site !!!\nTo the fakers Get a Live\n \n \n \n \n \n      \n\n \n \n \n","torrent":{"xt":"urn:btih:869440c6dc69bf43f6ee11058de79471599f151d","amp;dn":"Indiana+Jones+3+Last+Crusade+%281989%29%28DIVX%29%28NL+SUBS%29+2Lions-Team","amp;tr":["udp%3A%2F%2Ftracker.openbittorrent.com%3A80","udp%3A%2F%2Fopen.demonii.com%3A1337","udp%3A%2F%2Ftracker.coppersurfer.tk%3A6969","udp%3A%2F%2Fexodus.desync.com%3A6969"],"infoHash":"869440c6dc69bf43f6ee11058de79471599f151d","infoHashBuffer":{"type":"Buffer","data":[134,148,64,198,220,105,191,67,246,238,17,5,141,231,148,113,89,159,21,29]},"announce":[],"urlList":[]}}